Inverse Dynamics Generalized Forces
version=1
nRows=8
nColumns=34
inDegrees=no
endheader 
time	pelvis_tilt_moment	pelvis_list_moment	pelvis_rotation_moment	pelvis_tx_force	pelvis_ty_force	pelvis_tz_force	hip_flexion_l_moment	hip_adduction_l_moment	hip_rotation_l_moment	hip_flexion_r_moment	hip_adduction_r_moment	hip_rotation_r_moment	knee_angle_l_moment	knee_angle_r_moment	ankle_angle_l_moment	ankle_angle_r_moment	subtalar_angle_l_moment	subtalar_angle_r_moment	mtp_angle_l_moment	mtp_angle_r_moment	lumbar_extension_moment	lumbar_bending_moment	lumbar_rotation_moment	arm_flex_l_moment	arm_add_l_moment	arm_rot_l_moment	arm_flex_r_moment	arm_add_r_moment	arm_rot_r_moment	elbow_flex_l_moment	elbow_flex_r_moment	pro_sup_l_moment	pro_sup_r_moment	
          5.10000000	          0.00000004	          0.00000010	          0.00000006	          0.00000004	          0.00000004	         -0.00000004	        -24.24293399	         26.28618384	         -8.23806758	          0.00687541	        -25.48954577	         -5.50673509	          8.91155760	         -6.27162013	          0.94458852	          0.02081343	         -0.29598698	          0.13164959	         -0.06351554	          0.02291991	         74.18453802	        119.29496974	         -8.81309157	         14.63332374	        -81.47580899	         72.86850004	       -102.20020920	        137.27042402	         69.69722994	        -28.90816147	         85.24907442	          2.67551284	          3.37787799	
          5.11000000	          0.00000007	         -0.00000002	          0.00000001	          0.00000005	          0.00000003	          0.00000008	         17.73868100	         43.04305931	         -4.73868226	        -11.92541405	         -7.77946908	         -4.95780173	         28.74682566	         11.20408804	          2.62396583	          1.76202309	         -0.23454141	         -0.59979986	         -0.31697959	         -0.10634081	        -18.79769745	         15.09093870	         28.59654244	         55.19300173	        -99.17082560	         97.12499934	       -111.17290528	        141.18704174	         10.74333366	         -8.76596473	         81.20290525	          0.59095456	          2.05870745	
          5.12000000	          0.00000002	         -0.00000003	          0.00000001	         -0.00000003	          0.00000001	          0.00000004	         46.50213854	         25.60855817	         -1.68095709	        -11.80669264	         -3.57444207	         -5.13846677	         16.83611218	         12.07750312	          3.57778439	         -0.13169420	         -1.64413928	          0.49256231	         -0.23240457	         -0.02449618	        -54.64730077	         35.18718427	         36.26536864	          6.67148246	       -114.06246701	         39.82089268	       -118.95363665	        143.68100183	        -36.53025900	         21.42237166	         40.95943177	          0.02989188	         -2.43624120	
          5.13000000	         -0.00000004	          0.00000001	          0.00000000	         -0.00000007	         -0.00000002	         -0.00000007	         12.07154801	          9.39666644	         -2.67960051	         10.07382376	        -12.34690925	          0.80892185	         21.22716513	         20.19952673	          1.32105907	         -0.69477805	         -1.10611227	          0.00064180	         -0.06501056	          0.08791332	        -94.62366667	         16.59676032	        -18.89820638	         38.28852720	       -127.40299658	        -10.11789691	        -67.18557150	         93.70812985	        -70.61913327	         53.31605452	        -12.69342156	         -2.96553324	        -15.78410459	
          5.14000000	         -0.00000011	          0.00000001	         -0.00000005	         -0.00000012	         -0.00000004	         -0.00000011	         -0.78082779	         -6.82010674	         -2.97210127	          8.80629423	        -12.29026288	          0.10588068	         17.10129779	         12.45946396	          1.98329073	          1.20605775	         -1.50960164	         -0.57150605	         -0.05831416	         -0.08807678	        -46.70777846	          7.64721422	        -34.44073829	         17.88299973	       -134.37832566	         26.21048998	        -93.78783457	        107.56850309	        -72.80427985	         78.16763320	        -47.73410167	         -3.27811751	         -4.10998550	
          5.15000000	         -0.00000004	         -0.00000000	         -0.00000001	         -0.00000005	          0.00000003	         -0.00000006	         16.04477322	        -15.82837389	         -2.28998523	          5.51906253	        -11.57290118	         -0.46284373	          3.77343237	          7.76313062	          2.32100613	          1.65634785	         -1.34700723	         -0.64498825	         -0.07742835	         -0.13180070	        -59.56362529	         -9.26733376	        -21.58558262	        -25.12321273	       -137.35897894	         57.75008071	       -107.14960994	        120.06593303	        -15.42184159	         96.97697847	        -51.39139532	         -1.84018342	         -0.15780543	
          5.16000000	         -0.00000001	         -0.00000000	         -0.00000001	         -0.00000003	          0.00000002	         -0.00000003	         34.37987246	        -25.00240148	          0.36710023	         22.62807510	        -19.11009180	          2.43407255	         -8.52967164	          3.64442471	          2.83023092	          2.46491316	         -1.16432631	         -1.32976083	         -0.12515358	         -0.15003125	        -89.39085513	        -41.56909935	        -40.40956242	        -54.88453088	       -104.80338317	         80.61835526	        -79.27897604	        128.57175944	        -30.14085605	        110.63353773	        -54.05627389	         -0.26037561	         -0.63712044	
          5.17000000	          0.00000002	          0.00000006	         -0.00000002	         -0.00000000	         -0.00000001	         -0.00000007	         22.96536929	        -42.04558632	          7.80174764	         29.35418718	        -16.69876741	          4.20337698	         -7.87492488	          1.97244926	          1.95666370	          2.43590380	         -1.10583994	         -1.44554008	         -0.06750229	         -0.14417044	        -84.44245605	        -70.00462627	        -53.86896797	        -78.80374693	        -40.72628007	         21.56116153	        -21.46386982	        125.25337114	        -35.16656092	        120.38907300	        -30.59352229	         -2.27693938	         -0.33925004	
